<svg width="600" height="600" viewBox="0 0 600 600" fill="none" xmlns="http://www.w3.org/2000/svg">
  <rect width="600" height="600" fill="#1e293b"/>
  <rect x="50" y="50" width="500" height="500" rx="20" fill="#334155" stroke="#475569" stroke-width="2"/>
  
  <!-- Header -->
  <rect x="70" y="80" width="460" height="60" rx="10" fill="#475569"/>
  <rect x="90" y="100" width="120" height="20" rx="5" fill="#64748b"/>
  <rect x="350" y="100" width="80" height="20" rx="5" fill="#64748b"/>
  <rect x="450" y="100" width="60" height="20" rx="5" fill="#64748b"/>
  
  <!-- Sidebar -->
  <rect x="70" y="160" width="120" height="360" rx="10" fill="#475569"/>
  <rect x="90" y="180" width="80" height="15" rx="3" fill="#64748b"/>
  <rect x="90" y="210" width="80" height="15" rx="3" fill="#64748b"/>
  <rect x="90" y="240" width="80" height="15" rx="3" fill="#64748b"/>
  <rect x="90" y="270" width="80" height="15" rx="3" fill="#64748b"/>
  <rect x="90" y="300" width="80" height="15" rx="3" fill="#64748b"/>
  
  <!-- Main Content -->
  <rect x="210" y="160" width="320" height="160" rx="10" fill="#475569"/>
  <rect x="230" y="180" width="280" height="20" rx="5" fill="#64748b"/>
  <rect x="230" y="220" width="130" height="80" rx="5" fill="#64748b"/>
  <rect x="380" y="220" width="130" height="80" rx="5" fill="#64748b"/>
  
  <!-- Bottom Section -->
  <rect x="210" y="340" width="320" height="180" rx="10" fill="#475569"/>
  <rect x="230" y="360" width="280" height="20" rx="5" fill="#64748b"/>
  <rect x="230" y="400" width="85" height="100" rx="5" fill="#64748b"/>
  <rect x="330" y="400" width="85" height="100" rx="5" fill="#64748b"/>
  <rect x="430" y="400" width="80" height="100" rx="5" fill="#64748b"/>
  
  <!-- Accent elements -->
  <circle cx="100" cy="110" r="8" fill="#10b981"/>
  <circle cx="380" cy="260" r="6" fill="#3b82f6"/>
  <circle cx="470" cy="450" r="6" fill="#8b5cf6"/>
</svg> 